<svg viewBox="0 0 760 170" width="760" height="170" xmlns="http://www.w3.org/2000/svg" role="img" aria-label="neon football energy">
  <defs>
    <linearGradient id="bbg" x1="0" y1="0" x2="0" y2="1">
      <stop offset="0" stop-color="#05080f"/>
      <stop offset="1" stop-color="#03040a"/>
    </linearGradient>
    <radialGradient id="aura" cx="0.5" cy="0.52" r="0.5">
      <stop offset="0" stop-color="#1f7bff" stop-opacity="0.55"/>
      <stop offset="0.5" stop-color="#1146b0" stop-opacity="0.22"/>
      <stop offset="1" stop-color="#1146b0" stop-opacity="0"/>
    </radialGradient>
    <filter id="neon" x="-60%" y="-60%" width="220%" height="220%">
      <feGaussianBlur stdDeviation="3.2" result="b"/>
      <feMerge><feMergeNode in="b"/><feMergeNode in="SourceGraphic"/></feMerge>
    </filter>
    <filter id="soft2" x="-80%" y="-80%" width="260%" height="260%">
      <feGaussianBlur stdDeviation="16"/>
    </filter>
  </defs>

  <rect x="4" y="4" width="752" height="162" rx="18" fill="url(#bbg)" stroke="#2b7fff" stroke-opacity="0.12"/>

  <ellipse cx="380" cy="88" rx="150" ry="80" fill="url(#aura)" filter="url(#soft2)">
    <animate attributeName="opacity" values="0.6;1;0.6" dur="3.4s" repeatCount="indefinite"/>
  </ellipse>

  <g stroke="#3aa0ff" stroke-width="2" stroke-linecap="round" filter="url(#neon)">
    <g opacity="0.5">
      <animate attributeName="opacity" values="0.15;0.65;0.15" dur="1.8s" repeatCount="indefinite"/>
      <line x1="430" y1="88" x2="458" y2="88"/>
      <line x1="405" y1="131.3" x2="419" y2="155.6"/>
      <line x1="355" y1="131.3" x2="341" y2="155.6"/>
      <line x1="330" y1="88" x2="302" y2="88"/>
      <line x1="355" y1="44.7" x2="341" y2="20.4"/>
      <line x1="405" y1="44.7" x2="419" y2="20.4"/>
    </g>
    <g opacity="0.5">
      <animate attributeName="opacity" values="0.65;0.15;0.65" dur="1.8s" repeatCount="indefinite"/>
      <line x1="423.3" y1="113" x2="447.5" y2="127"/>
      <line x1="380" y1="138" x2="380" y2="166"/>
      <line x1="336.7" y1="113" x2="312.5" y2="127"/>
      <line x1="336.7" y1="63" x2="312.5" y2="49"/>
      <line x1="380" y1="38" x2="380" y2="10"/>
      <line x1="423.3" y1="63" x2="447.5" y2="49"/>
    </g>
  </g>

  <g filter="url(#neon)">
    <circle cx="380" cy="88" r="44" fill="#060d1c" fill-opacity="0.85" stroke="#56b4ff" stroke-width="2.4">
      <animate attributeName="stroke" values="#3a8fff;#7fd0ff;#3a8fff" dur="2.6s" repeatCount="indefinite"/>
    </circle>
    <g fill="none" stroke="#7fd0ff" stroke-width="1.8" stroke-linejoin="round">
      <path d="M380,69 L398.1,82.1 L391.2,103.4 L368.8,103.4 L361.9,82.1 Z"/>
      <path d="M380,69 L380,44 M398.1,82.1 L421.8,74.4 M391.2,103.4 L405.9,123.6 M368.8,103.4 L354.1,123.6 M361.9,82.1 L338.2,74.4"/>
    </g>
  </g>

  <g stroke="#aee3ff" stroke-width="1.6" fill="none" stroke-linecap="round" filter="url(#neon)">
    <polyline points="442,52 452,66 446,70 460,84">
      <animate attributeName="opacity" values="0;0.95;0;0.7;0;0" keyTimes="0;0.08;0.16;0.26;0.4;1" dur="2.3s" repeatCount="indefinite"/>
    </polyline>
    <polyline points="318,118 330,106 325,120 338,126">
      <animate attributeName="opacity" values="0;0;0.9;0;0.8;0" keyTimes="0;0.3;0.4;0.5;0.62;1" dur="2.7s" repeatCount="indefinite"/>
    </polyline>
  </g>

  <g fill="#bfe6ff">
    <circle cx="470" cy="120" r="1.8"><animate attributeName="opacity" values="0;1;0" dur="2.4s" repeatCount="indefinite"/><animate attributeName="cy" values="124;104" dur="2.4s" repeatCount="indefinite"/></circle>
    <circle cx="300" cy="60" r="1.6"><animate attributeName="opacity" values="0;1;0" dur="2.9s" begin="0.7s" repeatCount="indefinite"/><animate attributeName="cy" values="64;46" dur="2.9s" begin="0.7s" repeatCount="indefinite"/></circle>
    <circle cx="430" cy="40" r="1.5"><animate attributeName="opacity" values="0;0.9;0" dur="3.2s" begin="1.3s" repeatCount="indefinite"/><animate attributeName="cy" values="44;26" dur="3.2s" begin="1.3s" repeatCount="indefinite"/></circle>
  </g>
</svg>
